<svg xmlns="http://www.w3.org/2000/svg" xmlns:xlink="http://www.w3.org/1999/xlink" viewBox="0 0 150 150" height="566.929" width="566.929"><defs><linearGradient gradientTransform="translate(1947.916 -700.27) scale(.14267)" y2="5805.597" x2="-14303.568" y1="5209.03" x1="-14989.621" gradientUnits="userSpaceOnUse" id="c" xlink:href="#a"/><linearGradient id="a"><stop offset="0" stop-color="#4ed8ff"/><stop offset="1" stop-color="#ff14b3"/></linearGradient><filter height="1.099" y="-.05" width="1.056" x="-.028" id="b" color-interpolation-filters="sRGB"><feGaussianBlur stdDeviation="11.236"/></filter></defs><g transform="translate(224.715 -5.078)"><path d="M-16027.619 5211.604c-87.152.114-166.645 47.506-204.942 122.18-21.826-18.099-49.765-28.079-78.685-28.106-66.334 0-120.107 51.295-120.107 114.57.04 3.695.265 7.387.677 11.061-.619-.034-1.239-.063-1.859-.09-93.272 0-168.884 72.125-168.885 161.097.111 85.942 70.929 156.668 160.925 160.718 27.918-.853 589.328-.09 623.213.75 93.273 0 171.818-72.125 171.818-161.097-.04-83.366-66.751-152.93-153.796-160.379.05-.913.101-1.826.143-2.74 0-120.38-102.304-217.965-228.502-217.965z" style="isolation:auto;mix-blend-mode:normal;solid-color:#000;solid-opacity:1" transform="translate(2152.183 -702.394) scale(.14267)" color="#000" overflow="visible" opacity=".754" fill="#020202" fill-opacity=".5" fill-rule="evenodd" stroke-width="9.995" stroke-linecap="square" filter="url(#b)" enable-background="accumulate"/><path d="M-136.044 39.318c-12.433.016-23.774 6.777-29.238 17.431-3.114-2.582-7.1-4.006-11.226-4.01-9.464 0-17.135 7.318-17.135 16.345.006.528.037 1.054.096 1.579a18.568 18.568 0 0 0-.265-.013c-13.307 0-24.094 10.29-24.095 22.983.016 12.261 10.12 22.352 22.96 22.93 3.982-.122 84.077-.013 88.912.106 13.307 0 24.513-10.29 24.513-22.983-.006-11.894-9.524-21.818-21.942-22.88l.02-.392c0-17.174-14.595-31.096-32.6-31.096z" style="isolation:auto;mix-blend-mode:normal;solid-color:#000;solid-opacity:1" color="#000" overflow="visible" fill="url(#c)" fill-rule="evenodd" stroke-width="1.426" stroke-linecap="square" enable-background="accumulate"/><path d="M-137.238 70.102l-14.107 15.6 9.861 12.573-5.17 3.841a27655.957 27655.957 0 0 1-14.543-19.208l-21.263 25.611h74.575z" fill="#fff" stroke-width=".143"/><ellipse style="isolation:auto;mix-blend-mode:normal;solid-color:#000;solid-opacity:1" cx="-174.472" cy="71.225" rx="6.629" ry="6.506" color="#000" overflow="visible" fill="#fff" fill-rule="evenodd" stroke-width="2.646" stroke-linecap="square" enable-background="accumulate"/></g></svg>