<svg xmlns="http://www.w3.org/2000/svg" width="1060.608" height="1060.608" viewBox="0 0 280.619 280.619"><path style="isolation:auto;mix-blend-mode:normal;solid-color:#000;solid-opacity:1" color="#000" overflow="visible" fill="none" d="M0 0h280.619v280.62H-.001z"/><g fill="#fff" fill-opacity=".844"><path d="M145.014 76.166a23.454 23.454 0 00-21.036 13.148 12.328 12.328 0 00-8.076-3.025c-6.81 0-12.329 5.52-12.329 12.329.005.397.028.794.07 1.19a15.24 15.24 0 00-.19-.01c-9.575 0-17.336 7.761-17.336 17.335.012 9.248 7.28 16.858 16.518 17.294 2.866-.092 60.491-.01 63.97.08 9.573 0 17.635-7.76 17.635-17.334-.004-8.97-6.851-16.456-15.786-17.258l.015-.294c0-12.954-10.501-23.455-23.455-23.455zM117.441 96.4a4.354 4.354 0 014.353 4.354 4.354 4.354 0 01-4.353 4.353 4.354 4.354 0 01-4.354-4.353 4.354 4.354 0 014.354-4.354zm24.14 5.302l18.75 25.002h-45.836l12.501-16.668s5.855 7.813 9.376 12.501l3.333-2.5-5.937-7.917z" style="isolation:auto;mix-blend-mode:normal;solid-color:#000;solid-opacity:1" color="#000" overflow="visible" fill-rule="evenodd"/><g font-family="Roboto" letter-spacing="0" word-spacing="0"><path style="line-height:125%;-inkscape-font-specification:'Roboto, Light';text-align:start" d="M70.452 156.048q0 2.816-1.246 4.475-1.247 1.647-3.34 1.647-2.471 0-3.785-1.737v6.145h-1.325v-16.675h1.236l.067 1.703q1.302-1.926 3.774-1.926 2.16 0 3.384 1.636 1.235 1.637 1.235 4.542zm-1.335-.234q0-2.305-.947-3.64-.946-1.336-2.638-1.336-1.224 0-2.104.59-.88.59-1.347 1.714v5.778q.479 1.035 1.37 1.58.89.546 2.103.546 1.681 0 2.616-1.336.947-1.347.947-3.896zm5.621-3.874q.657-1.08 1.681-1.67 1.024-.59 2.238-.59 1.937 0 2.883 1.091.946 1.09.957 3.273v7.903h-1.325v-7.914q-.01-1.614-.69-2.405-.668-.79-2.148-.79-1.236 0-2.193.779-.946.768-1.403 2.082v8.248h-1.325V144.85h1.325zm10.453 3.807q0-1.737.668-3.128.679-1.392 1.903-2.16 1.236-.779 2.795-.779 2.404 0 3.896 1.692 1.491 1.681 1.491 4.464v.278q0 1.748-.679 3.15-.668 1.392-1.892 2.15-1.225.756-2.794.756-2.394 0-3.896-1.68-1.492-1.693-1.492-4.476zm1.336.367q0 2.16 1.113 3.551 1.124 1.38 2.939 1.38 1.803 0 2.916-1.38 1.125-1.391 1.125-3.662v-.256q0-1.38-.512-2.527-.512-1.147-1.436-1.77-.924-.634-2.115-.634-1.782 0-2.906 1.402-1.124 1.392-1.124 3.651zm14.249-9.294v3.083h2.493v1.09h-2.493v8.027q0 1.002.356 1.491.367.49 1.213.49.334 0 1.08-.111l.056 1.09q-.523.19-1.425.19-1.37 0-1.993-.79-.623-.802-.623-2.35v-8.036h-2.215v-1.091h2.215v-3.084zm4.319 8.927q0-1.737.668-3.128.679-1.392 1.903-2.16 1.236-.779 2.794-.779 2.405 0 3.897 1.692 1.491 1.681 1.491 4.464v.278q0 1.748-.679 3.15-.668 1.392-1.892 2.15-1.225.756-2.794.756-2.394 0-3.896-1.68-1.492-1.693-1.492-4.476zm1.336.367q0 2.16 1.113 3.551 1.124 1.38 2.939 1.38 1.803 0 2.916-1.38 1.125-1.391 1.125-3.662v-.256q0-1.38-.513-2.527-.512-1.147-1.436-1.77-.923-.634-2.115-.634-1.78 0-2.905 1.402-1.124 1.392-1.124 3.651z" font-weight="300" font-size="222.991"/><path style="line-height:125%;-inkscape-font-specification:'Roboto, Bold';text-align:start;isolation:auto;mix-blend-mode:normal;solid-color:#000;solid-opacity:1" d="M124.631 158.619q0-.59-.59-.924-.579-.345-1.87-.612-4.297-.902-4.297-3.651 0-1.603 1.325-2.672 1.336-1.08 3.484-1.08 2.293 0 3.663 1.08 1.38 1.08 1.38 2.805h-3.217q0-.69-.445-1.135-.446-.457-1.392-.457-.813 0-1.258.368-.445.367-.445.935 0 .534.5.868.513.323 1.715.568 1.202.233 2.026.534 2.55.935 2.55 3.24 0 1.647-1.414 2.671-1.414 1.013-3.652 1.013-1.514 0-2.694-.534-1.168-.546-1.836-1.48-.668-.947-.668-2.038h3.05q.044.857.634 1.314.59.456 1.581.456.924 0 1.392-.345.478-.356.478-.924zm9.039-11.677v2.96h2.06v2.36h-2.06v6.012q0 .668.256.957.257.29.98.29.534 0 .946-.078v2.438q-.946.29-1.948.29-3.384 0-3.45-3.418v-6.49h-1.76v-2.36h1.76v-2.961zm10.62 5.978q-.657-.09-1.157-.09-1.826 0-2.394 1.236v7.881h-3.217v-12.044h3.04l.088 1.436q.969-1.659 2.683-1.659.534 0 1.002.145zm8.772 7.803q-1.19 1.447-3.295 1.447-1.937 0-2.96-1.113-1.014-1.113-1.036-3.262v-7.892h3.217v7.78q0 1.882 1.714 1.882 1.637 0 2.249-1.135v-8.527h3.228v12.044h-3.028zm10.576-1.147q.89 0 1.447-.49.556-.49.579-1.302h3.016q-.01 1.225-.668 2.249-.656 1.013-1.803 1.58-1.135.557-2.516.557-2.582 0-4.074-1.636-1.492-1.648-1.492-4.542v-.212q0-2.783 1.48-4.441 1.481-1.659 4.064-1.659 2.26 0 3.618 1.291 1.369 1.28 1.391 3.418h-3.016q-.023-.935-.58-1.514-.556-.59-1.469-.59-1.124 0-1.703.824-.568.812-.568 2.65v.333q0 1.86.568 2.672t1.726.812zm10.731-12.634v2.96h2.06v2.36h-2.06v6.012q0 .668.256.957.256.29.98.29.534 0 .946-.078v2.438q-.947.29-1.949.29-3.384 0-3.45-3.418v-6.49h-1.76v-2.36h1.76v-2.961zm11.065 13.781q-1.191 1.447-3.295 1.447-1.937 0-2.961-1.113-1.013-1.113-1.036-3.262v-7.892h3.218v7.78q0 1.882 1.714 1.882 1.636 0 2.248-1.135v-8.527h3.229v12.044h-3.028zm12.334-7.803q-.657-.09-1.158-.09-1.825 0-2.393 1.236v7.881H191v-12.044h3.039l.089 1.436q.968-1.659 2.683-1.659.534 0 1.001.145zm6.879 9.25q-2.649 0-4.319-1.625-1.658-1.625-1.658-4.33v-.312q0-1.815.7-3.24.702-1.436 1.982-2.204 1.292-.779 2.94-.779 2.47 0 3.884 1.559 1.425 1.558 1.425 4.419v1.313h-7.67q.156 1.18.935 1.893.79.712 1.993.712 1.859 0 2.905-1.347l1.581 1.77q-.723 1.024-1.96 1.603-1.235.568-2.738.568zm-.367-9.885q-.957 0-1.558.646-.59.645-.757 1.847h4.475v-.256q-.023-1.068-.58-1.647-.556-.59-1.58-.59z" color="#000" font-weight="700" font-size="222.991" overflow="visible" fill-rule="evenodd"/><path style="line-height:125%;-inkscape-font-specification:'Roboto, Bold';text-align:start" d="M215.371 144.716h-1.175v3.197h-.791v-3.197h-1.16v-.64h3.126zm1.487-.641l.986 2.784.98-2.784h1.039v3.838h-.794v-1.049l.08-1.81-1.036 2.86h-.543l-1.034-2.858.08 1.808v1.05h-.791v-3.839z" font-weight="700"/></g></g></svg>